<svg xmlns="http://www.w3.org/2000/svg" width="1400" height="972" viewBox="0 0 1400 972" version="1.1">
	<path d="M 530 1.313 C 530 3.601, 524.170 8.324, 516.217 12.480 C 506.832 17.385, 504.526 20.469, 503.709 29.212 C 503.335 33.222, 501.984 37.969, 500.058 42.039 C 497.318 47.831, 497.001 49.483, 497 58 C 496.999 66.625, 496.707 68.098, 493.836 74 C 491.019 79.790, 490.601 81.811, 490.009 92.500 C 489.441 102.755, 488.962 105.227, 486.713 109.500 C 485.265 112.250, 483.774 116.525, 483.400 119 C 481.849 129.251, 477.249 134.064, 466.180 137.018 C 462.506 137.998, 457.025 139.678, 454 140.751 C 450.975 141.824, 446.700 143.024, 444.500 143.418 C 434.571 145.197, 429 152.428, 429 163.537 C 429 174.887, 433.445 177.813, 444.329 173.627 C 468.660 164.272, 479.310 166.867, 471.776 180.316 C 471.053 181.607, 470.330 188.458, 470.009 197.076 C 469.500 210.691, 469.274 212.010, 466.578 217.076 C 464.134 221.668, 463.587 224.118, 463.012 233.046 C 462.465 241.544, 461.794 244.749, 459.559 249.546 C 457.449 254.075, 456.613 257.774, 456.064 265 C 455.491 272.557, 454.762 275.625, 452.504 280 C 450.008 284.835, 449.580 287.011, 448.961 298 C 448.369 308.522, 447.839 311.391, 445.610 316.131 C 443.544 320.525, 442.825 323.932, 442.339 331.631 C 441.866 339.131, 441.146 342.640, 439.341 346.250 C 438.035 348.862, 436.328 354.336, 435.548 358.413 C 434.768 362.490, 433.267 367.552, 432.212 369.663 C 431.158 371.773, 429.758 375.693, 429.102 378.373 C 428.446 381.052, 426.845 385.347, 425.543 387.915 C 424.241 390.484, 422.447 395.094, 421.556 398.159 C 420.665 401.225, 418.064 406.830, 415.776 410.616 C 413.489 414.402, 410.159 420.949, 408.378 425.165 C 406.596 429.380, 403.378 435.680, 401.226 439.165 C 399.074 442.649, 396.088 447.656, 394.590 450.291 C 393.093 452.927, 389.878 457.322, 387.447 460.059 C 385.016 462.796, 380.357 469.008, 377.092 473.863 C 361.045 497.729, 338.338 502.274, 333.914 482.505 C 331.683 472.536, 333.131 455.534, 336.829 448.279 C 339.750 442.548, 340 441.285, 340.001 432.279 C 340.002 423.332, 340.271 421.947, 343.171 416 C 346.054 410.089, 346.404 408.323, 347.029 396.500 C 347.613 385.474, 348.118 382.622, 350.360 377.718 C 352.291 373.493, 353.253 369.183, 353.931 361.718 C 354.497 355.474, 355.835 348.752, 357.371 344.434 C 359.318 338.962, 360.015 334.603, 360.461 325.115 C 360.960 314.491, 361.390 312.173, 363.691 307.681 C 365.846 303.476, 366.483 300.486, 367.075 291.804 C 367.658 283.250, 368.350 279.946, 370.531 275.304 C 372.850 270.368, 373.363 267.629, 373.961 257 C 374.576 246.080, 375.019 243.807, 377.466 239.019 C 379.613 234.819, 380.440 231.432, 381.006 224.519 C 381.545 217.947, 382.476 213.945, 384.438 209.768 C 386.652 205.055, 387.264 201.947, 387.888 192.268 C 388.498 182.806, 389.110 179.618, 391.012 176 C 393.030 172.162, 393.485 169.424, 394.104 157.384 C 394.755 144.744, 395.119 142.704, 397.586 137.884 C 399.874 133.413, 400.472 130.607, 401.112 121.337 C 401.663 113.359, 402.657 107.939, 404.595 102.337 C 406.563 96.650, 407.497 91.483, 407.999 83.500 C 408.521 75.205, 409.221 71.465, 410.846 68.290 C 417.197 55.878, 409.631 49.161, 394.829 54.070 C 363.645 64.413, 355.344 73.738, 353.945 100 C 353.384 110.530, 352.868 113.370, 350.671 118.021 C 349.075 121.400, 347.707 126.637, 347.145 131.521 C 346.640 135.909, 345.204 141.975, 343.953 145 C 342.166 149.323, 341.526 153.397, 340.963 164.041 C 340.322 176.136, 339.945 178.166, 337.437 183.041 C 334.950 187.875, 334.548 189.989, 333.928 201.509 C 333.334 212.558, 332.809 215.495, 330.446 221.009 C 328.199 226.249, 327.522 229.716, 326.931 239 C 326.327 248.497, 325.716 251.541, 323.422 256.479 C 321.136 261.398, 320.527 264.411, 319.986 273.479 C 319.447 282.512, 318.830 285.582, 316.563 290.500 C 314.430 295.126, 313.675 298.560, 313.265 305.500 C 312.852 312.477, 312.156 315.624, 310.167 319.500 C 307.875 323.969, 307.533 326.094, 306.949 339.500 C 306.349 353.287, 306.069 354.945, 303.485 360 C 301.281 364.311, 300.510 367.553, 299.915 375 C 299.357 381.988, 298.342 386.527, 296.078 392.167 C 294.385 396.383, 293 401.558, 292.999 403.667 C 292.999 405.832, 291.718 410.207, 290.055 413.721 C 288.436 417.143, 286.646 422.463, 286.077 425.543 C 285.409 429.156, 281.450 438.305, 274.923 451.322 C 269.358 462.420, 261.362 478.434, 257.153 486.909 C 252.167 496.948, 247.895 504.092, 244.893 507.409 C 242.359 510.209, 238.147 515.875, 235.534 520 C 224.755 537.017, 206.950 546.860, 197.999 540.750 C 190.076 535.341, 187.651 498.833, 194.198 483.500 C 195.615 480.181, 197.062 474.372, 197.436 470.500 C 197.808 466.650, 199.211 460.125, 200.553 456 C 202.029 451.462, 203.354 444.155, 203.905 437.500 C 204.617 428.925, 205.426 425.177, 207.578 420.500 C 210.025 415.180, 210.408 412.914, 210.960 400.500 C 211.532 387.648, 211.819 386.049, 214.465 381 C 217.010 376.144, 217.421 374.096, 217.979 363.500 C 218.531 353.030, 218.969 350.808, 221.412 346.074 C 223.717 341.608, 224.345 338.777, 224.962 330.074 C 225.466 322.970, 226.428 317.733, 227.894 314.115 C 229.121 311.089, 230.461 304.739, 230.953 299.615 C 231.555 293.349, 232.793 288.103, 234.914 282.833 C 244.198 259.766, 231.015 245.137, 210.500 255.741 C 207.200 257.446, 202.866 259.143, 200.868 259.510 C 192.350 261.077, 186.839 267.152, 184.500 277.554 C 183.641 281.374, 181.750 287.200, 180.298 290.500 C 177.994 295.739, 177.609 298.149, 177.261 309.500 C 176.916 320.795, 176.489 323.483, 174.012 330 C 171.857 335.668, 170.922 340.432, 170.186 349.500 C 169.469 358.343, 168.609 362.816, 166.919 366.500 C 165.156 370.344, 164.469 374.165, 163.945 383.022 C 163.366 392.830, 162.851 395.359, 160.486 400.022 C 158.213 404.502, 157.574 407.414, 156.979 416 C 156.407 424.261, 155.668 427.779, 153.517 432.500 C 151.204 437.574, 150.674 440.429, 150.083 451 C 149.523 461.004, 148.943 464.344, 147.182 467.728 C 145.972 470.054, 144.319 475.104, 143.510 478.952 C 141.632 487.881, 129.669 511.962, 119.517 527.250 C 115.408 533.438, 108.895 543.225, 105.043 549 C 89.573 572.194, 73.864 580.067, 64.166 569.485 C 59.432 564.318, 59.604 533.232, 64.429 522 C 66.706 516.700, 67.366 513.285, 68.004 503.500 C 68.668 493.337, 69.263 490.399, 71.894 484.305 C 74.702 477.800, 75 476.121, 75.001 466.805 C 75.002 457.329, 75.252 455.977, 78.117 450 C 80.702 444.607, 81.365 441.712, 82.010 433 C 82.615 424.825, 83.393 421.171, 85.522 416.500 C 87.840 411.414, 88.360 408.597, 88.939 398 C 89.517 387.405, 90.010 384.738, 92.171 380.500 C 94.139 376.640, 94.850 373.408, 95.290 366.324 C 95.711 359.555, 96.564 355.490, 98.541 350.824 C 100.686 345.764, 101.377 342.103, 102 332.500 C 102.563 323.816, 103.362 319.164, 104.889 315.667 C 108.963 306.339, 105.535 298.567, 97.380 298.643 C 66.062 298.935, 49.960 313.128, 47.928 342.231 C 47.390 349.929, 46.317 355.999, 44.539 361.386 C 42.650 367.113, 41.779 372.317, 41.359 380.386 C 40.891 389.359, 40.291 392.559, 38.243 397 C 36.179 401.477, 35.574 404.752, 34.992 414.608 C 34.392 424.760, 33.834 427.669, 31.542 432.608 C 29.504 437, 28.609 440.928, 28.028 448.039 C 27.418 455.486, 26.634 458.776, 24.452 463.039 C 21.974 467.879, 21.580 469.979, 20.987 481.500 C 20.421 492.518, 19.901 495.477, 17.582 500.905 C 15.594 505.555, 14.636 509.938, 14.085 516.905 C 13.517 524.094, 12.694 527.754, 10.805 531.500 C 9.142 534.797, 8.055 539.044, 7.614 543.967 C 6.913 551.803, 5.076 555.906, 1.898 556.737 C -2.016 557.760, -0.767 601.968, 3.248 604.500 C 4.991 605.600, 10.037 611.192, 14.459 616.926 C 25.377 631.084, 27.175 632, 44.041 632 C 64.801 632, 90.372 614.081, 104.723 589.478 C 106.975 585.616, 111.297 579.679, 114.325 576.284 C 117.354 572.890, 121.451 567.031, 123.431 563.263 C 130.316 550.161, 139.724 549.618, 143.005 562.135 C 149.670 587.564, 197.093 593.013, 221.323 571.135 C 223.620 569.061, 228.669 565.285, 232.541 562.744 C 239.662 558.072, 244.883 552.614, 250.953 543.500 C 252.785 540.750, 256.132 536.571, 258.392 534.213 C 260.651 531.855, 264.975 526.245, 268 521.746 C 277.113 508.193, 279.790 507.978, 292.350 519.788 C 315.655 541.701, 342.425 542.991, 364.221 523.253 C 367.205 520.550, 371.864 516.849, 374.573 515.026 C 381.521 510.355, 386.396 505.580, 392.467 497.500 C 395.360 493.650, 400.514 487.367, 403.920 483.537 C 407.326 479.708, 411.662 474.025, 413.555 470.909 C 420.514 459.454, 428.116 459.837, 440.835 472.284 C 451.764 482.979, 452.738 483.280, 474.910 482.818 C 499.017 482.317, 518.692 471.578, 534.621 450.229 C 537.793 445.978, 543.625 439.125, 547.581 435 C 551.655 430.752, 556.078 424.898, 557.782 421.500 C 559.436 418.200, 562.639 413.403, 564.900 410.840 C 568.798 406.422, 571.659 400.620, 577.938 384.398 C 579.450 380.492, 582.736 374.417, 585.239 370.898 C 590.912 362.925, 595.689 353.021, 601.438 337.317 C 603.891 330.617, 606.987 322.967, 608.318 320.317 C 611.004 314.970, 617.106 299.696, 619.030 293.500 C 619.714 291.300, 621.319 287.413, 622.597 284.862 C 623.875 282.311, 625.357 277.511, 625.891 274.196 C 626.425 270.880, 627.518 266.893, 628.320 265.334 C 629.122 263.775, 630.723 259.350, 631.876 255.500 C 633.030 251.650, 635.105 246.286, 636.487 243.581 C 638.413 239.811, 639 237.134, 639 232.125 C 639 226.797, 639.638 224.195, 642.451 218.044 C 647.640 206.701, 651.601 196.119, 652.860 190.228 C 658.836 162.296, 675.251 160.475, 688.250 186.303 C 693.802 197.334, 693.830 197.589, 690.298 204.904 C 688.020 209.621, 687.502 212.306, 686.999 222 C 686.481 231.979, 686.029 234.221, 683.583 238.950 C 681.473 243.028, 680.576 246.551, 680.015 252.950 C 679.455 259.350, 678.571 262.814, 676.504 266.726 C 674.046 271.375, 673.715 273.143, 673.504 282.746 C 673.290 292.459, 672.978 294.089, 670.383 299.020 C 667.582 304.345, 667.485 305.024, 666.978 323 C 666.479 340.701, 666.339 341.725, 663.728 346.717 C 660.385 353.109, 660.348 354.779, 663.411 360.823 C 664.736 363.440, 666.316 368.262, 666.920 371.540 C 669.086 383.285, 681.220 397.247, 692.530 401.009 C 696.364 402.284, 701.750 404.374, 704.500 405.654 C 710.916 408.639, 712.010 408.597, 719.920 405.051 C 723.539 403.429, 729.038 401.607, 732.141 401.003 C 745.686 398.364, 777.284 372.328, 786.647 356.092 C 791.360 347.921, 802.172 336.428, 806.487 335.004 C 811.192 333.451, 813.835 334.840, 823.493 343.936 C 834.220 354.040, 834.954 354.245, 858.889 353.826 C 879.959 353.457, 880.256 353.371, 889.494 345.005 C 892.470 342.310, 898.006 338.062, 901.795 335.566 C 910.066 330.117, 917.007 322.970, 923.278 313.445 C 936.102 293.969, 944.273 290.294, 955.184 299.095 C 971.073 311.911, 986.918 315.990, 998 310.114 C 1000.475 308.802, 1005.698 306.733, 1009.607 305.517 C 1013.682 304.249, 1019.440 301.394, 1023.107 298.823 C 1026.623 296.358, 1031.750 293.058, 1034.500 291.490 C 1041.064 287.748, 1050.554 278.645, 1053.775 273 C 1055.187 270.525, 1058.458 265.575, 1061.043 262 C 1063.628 258.425, 1066.639 253.475, 1067.733 251 C 1068.828 248.525, 1071.523 244.475, 1073.723 242 C 1075.923 239.525, 1079.133 234.800, 1080.857 231.500 C 1082.580 228.200, 1085.772 222.639, 1087.950 219.143 C 1090.128 215.646, 1092.670 210.471, 1093.598 207.643 C 1094.527 204.814, 1099.505 194.051, 1104.660 183.725 C 1118.827 155.353, 1120.413 144.866, 1111.433 138.946 C 1102.537 133.082, 1090.372 140.425, 1088.158 152.994 C 1087.556 156.411, 1086.262 160.474, 1085.282 162.023 C 1084.302 163.573, 1080.243 169.994, 1076.261 176.293 C 1070.769 184.983, 1068.696 189.283, 1067.669 194.123 C 1063.447 214.010, 1027.725 261.327, 1014.196 264.953 C 1007.744 266.682, 1001.381 265.376, 997.084 261.441 C 991.975 256.762, 990.962 227.942, 995.588 218.844 C 997.549 214.986, 998.527 211.121, 999.102 204.948 C 999.686 198.673, 1000.710 194.678, 1002.948 189.948 C 1005.681 184.170, 1005.999 182.513, 1006 174 C 1006.001 165.385, 1006.295 163.894, 1009.154 158 C 1012.086 151.954, 1012.356 150.487, 1013.015 137 C 1013.625 124.503, 1014.107 121.533, 1016.501 115.500 C 1018.912 109.428, 1019.367 106.578, 1019.938 94 C 1020.527 81.015, 1020.869 78.977, 1023.214 74.500 C 1030.186 61.188, 1026.385 44.122, 1016.075 42.443 C 1001.295 40.035, 1002.563 40.732, 989.037 27.580 C 972.400 11.404, 971.068 10.403, 962.957 7.987 C 957.775 6.444, 955.438 5.159, 953.810 2.957 C 950.733 -1.204, 928.355 -1.717, 925.714 2.314 C 924.841 3.646, 918.529 7.426, 910.849 11.216 C 888.444 22.273, 862.120 51.452, 857.366 70.500 C 856.543 73.800, 853.129 82.271, 849.780 89.324 C 844.364 100.729, 843.638 102.997, 843.214 109.824 C 842.865 115.462, 842.050 118.828, 840.145 122.500 C 837.943 126.744, 837.466 129.245, 836.985 139.050 C 836.481 149.323, 836.094 151.203, 833.486 156.050 C 830.713 161.202, 830.524 162.320, 830.021 176.500 C 829.533 190.271, 829.262 191.972, 826.708 197.266 C 825.178 200.438, 823.452 205.594, 822.874 208.726 C 822.295 211.857, 820.683 216.665, 819.293 219.409 C 817.477 222.992, 816.562 226.838, 816.048 233.044 C 815.384 241.062, 814.894 242.517, 809.295 253.095 C 805.974 259.368, 802.687 266.300, 801.990 268.500 C 800.353 273.663, 792.689 289.007, 788.374 295.759 C 784.074 302.487, 777.545 315.468, 774.887 322.573 C 770.535 334.203, 750.566 357.338, 742.613 359.963 C 725.671 365.554, 709.748 348.153, 717.681 332.717 C 719.975 328.254, 720.445 325.837, 720.934 316 C 721.430 306.022, 721.884 303.741, 724.363 298.765 C 726.984 293.503, 727.246 291.972, 727.534 280.206 C 727.780 270.155, 728.314 266.098, 730.002 261.441 C 733.585 251.559, 733.708 250.895, 734.463 237.470 C 735.090 226.311, 735.598 223.569, 738.096 217.832 C 741.936 209.015, 742.645 167.085, 739.071 160.210 C 734.068 150.590, 708.254 127.376, 693.938 119.624 C 675.202 109.478, 659.240 99.202, 656.573 95.569 C 653.934 91.975, 653.170 90.019, 648.934 76.001 C 644.854 62.503, 627.346 43, 619.310 43 C 612.189 43, 606.938 48.836, 605.564 58.277 C 605.182 60.905, 603.496 65.990, 601.817 69.576 C 594.501 85.212, 601.473 106.415, 620.841 127.426 C 635.909 143.773, 637.052 154.156, 626.228 176.375 C 621.930 185.199, 619.676 191.177, 619.064 195.375 C 618.573 198.744, 616.965 204.197, 615.491 207.492 C 613.420 212.122, 612.688 215.647, 612.272 222.992 C 611.906 229.469, 611.114 233.775, 609.788 236.500 C 605.560 245.190, 599 261.071, 599 262.615 C 599 263.513, 597.425 267.737, 595.500 272 C 593.575 276.263, 591.989 280.820, 591.976 282.126 C 591.963 283.432, 590.800 287.200, 589.392 290.500 C 587.984 293.800, 585.936 299.352, 584.842 302.838 C 583.748 306.324, 580.814 313.524, 578.323 318.838 C 575.831 324.152, 572.521 331.875, 570.966 336 C 563.705 355.261, 562.114 358.939, 558.326 365.210 C 556.098 368.900, 553.219 374.750, 551.930 378.210 C 549.196 385.545, 535.782 406.567, 527.353 416.724 C 524.134 420.604, 518.922 426.964, 515.771 430.858 C 495.873 455.447, 465.381 437.233, 479.178 409 C 482.128 402.964, 482.403 401.501, 483.026 388.500 C 483.611 376.290, 484.032 373.794, 486.317 368.979 C 487.953 365.532, 489.273 360.453, 489.832 355.457 C 490.382 350.543, 491.622 345.727, 493.046 342.978 C 494.954 339.293, 495.498 336.188, 496.116 325.449 C 496.727 314.829, 497.371 311.105, 499.574 305.449 C 501.631 300.168, 502.450 295.861, 502.989 287.500 C 503.559 278.664, 504.253 275.222, 506.522 270 C 508.792 264.774, 509.484 261.344, 510.050 252.500 C 510.621 243.584, 511.277 240.363, 513.510 235.500 C 515.877 230.348, 516.367 227.662, 516.979 216.500 C 517.597 205.230, 518.062 202.720, 520.472 197.635 C 522.792 192.740, 523.372 189.847, 523.978 180.135 C 524.644 169.472, 525.024 167.832, 528.528 160.500 C 534.595 147.806, 534.673 147.735, 551.822 139.039 C 574.197 127.694, 578 123.977, 578 113.455 C 578 104.204, 570.565 100.802, 558.409 104.489 C 551.527 106.577, 550.254 106.408, 546.792 102.946 C 542.627 98.781, 543.007 79.455, 547.500 67 C 549.694 60.918, 550.340 56.948, 550.919 46 C 551.529 34.479, 552.034 31.572, 554.363 26.169 C 556.471 21.282, 557.231 17.575, 557.698 9.919 C 558.302 0, 558.302 0, 544.151 0 C 533.135 0, 530 0.291, 530 1.313 M 925.946 57.856 C 915.650 64.471, 905.916 76.572, 903.660 85.561 C 902.823 88.895, 899.788 96.545, 896.915 102.561 C 891.692 113.500, 891.692 113.500, 890.984 128.108 C 890.346 141.272, 889.997 143.299, 887.453 148.608 C 884.859 154.023, 884.585 155.718, 884.065 169.547 C 883.539 183.550, 883.303 184.972, 880.666 190.047 C 878.578 194.062, 877.587 197.854, 876.905 204.429 C 876.396 209.340, 874.634 217.558, 872.990 222.691 C 870.904 229.202, 870 234.037, 870 238.683 C 870 244.144, 869.423 246.525, 866.791 251.921 C 863.936 257.776, 863.516 259.766, 862.977 270 C 862.512 278.841, 861.872 282.541, 860.208 286 C 856.011 294.728, 863.133 307.678, 874.509 312.003 C 888.500 317.323, 919.986 285.989, 925.173 261.585 C 925.767 258.788, 928.684 251.938, 931.656 246.362 C 935.260 239.597, 937.495 233.941, 938.372 229.362 C 939.095 225.588, 940.701 220.521, 941.940 218.101 C 949.243 203.842, 951.291 196.216, 952.041 180.500 C 952.683 167.052, 953.044 164.879, 955.535 159.500 C 957.923 154.342, 958.404 151.746, 958.958 141 C 959.531 129.910, 959.926 127.880, 962.458 123 C 964.644 118.788, 965.410 115.743, 965.730 110 C 965.981 105.481, 967.164 99.621, 968.705 95.257 C 973.019 83.041, 965.994 61.797, 955.973 56.752 C 949.677 53.582, 931.562 54.248, 925.946 57.856 M 1033.388 347.941 C 1030.048 349.352, 1027.336 353.534, 1026.686 358.271 C 1026.358 360.670, 1024.719 365.528, 1023.045 369.067 C 1020.168 375.147, 1020.002 376.173, 1020.001 387.782 C 1020 404.133, 1020.245 404.621, 1037.013 421.541 C 1055.527 440.223, 1057.940 447.167, 1051.010 461.816 C 1049.367 465.290, 1047.600 470.757, 1047.083 473.965 C 1046.566 477.173, 1045.246 481.558, 1044.148 483.709 C 1043.051 485.860, 1041.409 490.491, 1040.500 494 C 1039.591 497.509, 1037.921 502.195, 1036.789 504.414 C 1035.657 506.633, 1034.133 511.305, 1033.403 514.796 C 1032.672 518.287, 1031.195 522.574, 1030.121 524.322 C 1029.047 526.070, 1027.461 530.242, 1026.597 533.593 C 1025.734 536.943, 1024.128 541.716, 1023.030 544.199 C 1021.932 546.681, 1020.574 551.954, 1020.012 555.915 C 1019.450 559.876, 1018.271 564.509, 1017.392 566.210 C 1015.570 569.732, 1010.929 582.802, 1007.424 594.282 C 1006.117 598.561, 1003.947 603.961, 1002.602 606.282 C 1001.258 608.602, 999.414 613.091, 998.505 616.258 C 995.096 628.141, 987.628 644.604, 980.725 655.453 C 978.642 658.727, 976.234 663.902, 975.374 666.953 C 974.514 670.004, 972.134 675.425, 970.085 679 C 968.036 682.575, 964.142 689.943, 961.430 695.374 C 954.782 708.689, 931.374 734.592, 921.151 739.946 C 917.278 741.975, 905.187 741.528, 902.107 739.243 C 895.908 734.644, 894.925 708.299, 900.505 696.300 C 902.483 692.045, 903.394 688.072, 903.925 681.385 C 904.495 674.210, 905.255 671.124, 907.497 666.885 C 910.006 662.140, 910.420 660.073, 910.978 649.500 C 911.537 638.908, 911.949 636.855, 914.492 632 C 917.115 626.993, 917.429 625.291, 917.995 613 C 918.529 601.409, 918.995 598.626, 921.291 593.321 C 922.762 589.922, 924.262 584.522, 924.625 581.321 C 924.987 578.119, 926.091 573.419, 927.078 570.875 C 929.610 564.349, 931.886 539.121, 931.153 525.705 C 930.839 519.959, 926.862 517.684, 918.502 518.468 C 908.907 519.367, 905.774 517.890, 898.556 509.069 C 880.779 487.340, 872.490 483.500, 843.358 483.500 C 821.215 483.500, 821.215 483.500, 814.358 488.121 C 810.586 490.663, 804.987 494.322, 801.917 496.252 C 794.556 500.879, 787.130 508.415, 781.043 517.436 C 778.322 521.469, 774.225 526.930, 771.937 529.573 C 765.281 537.263, 763.081 541.196, 761.920 547.477 C 761.278 550.948, 758.351 558.315, 754.795 565.409 C 749.379 576.213, 748.679 578.323, 747.966 585.974 C 747.486 591.132, 746.197 596.870, 744.704 600.500 C 742.881 604.931, 742.089 609.117, 741.674 616.505 C 741.222 624.583, 740.577 627.665, 738.326 632.505 C 735.809 637.919, 735.483 639.905, 734.964 653 C 734.431 666.431, 734.177 667.905, 731.523 673 C 729.224 677.413, 728.517 680.378, 727.947 688 C 726.999 700.691, 721.754 716.795, 714.892 728.085 C 712.079 732.713, 708.459 739.650, 706.847 743.500 C 704.353 749.456, 696.848 763.590, 691.098 773.160 C 690.219 774.623, 686.741 778.960, 683.368 782.798 C 679.996 786.637, 675.807 792.458, 674.060 795.735 C 669.465 804.357, 640.842 832.603, 632.446 836.803 C 629.116 838.469, 624.391 841.510, 621.946 843.561 C 614.787 849.566, 612.937 850, 594.492 850 C 575.132 850, 573.258 849.405, 565.493 840.800 C 558.063 832.565, 558 832.265, 558 804.982 C 558 770.261, 559.791 768.017, 587.528 768.006 C 609.770 767.996, 642.948 746.788, 660.282 721.500 C 662.544 718.200, 667.076 712.125, 670.352 708 C 676.764 699.928, 679.943 693.984, 679.979 690 C 679.991 688.625, 681.413 684.575, 683.139 681 C 685.869 675.343, 686.368 673.008, 686.987 663 C 687.579 653.420, 688.162 650.519, 690.478 645.627 C 696.029 633.904, 694.645 594.239, 688.241 581.490 C 675.719 556.562, 646.762 544.167, 624.500 554.206 C 621.200 555.694, 616.475 557.418, 614 558.038 C 595.352 562.706, 571.427 579.625, 561.098 595.447 C 558.252 599.807, 553.976 605.653, 551.596 608.439 C 546.280 614.662, 538.497 629.918, 537.536 636 C 537.145 638.475, 535.538 643.425, 533.965 647 C 531.543 652.504, 531.050 655.109, 530.746 664 C 530.431 673.242, 530.042 675.159, 527.504 680 C 525.006 684.763, 524.527 687.042, 523.926 697 C 523.371 706.193, 522.688 709.796, 520.523 714.959 C 518.754 719.176, 517.625 724.035, 517.269 728.959 C 516.907 733.955, 515.714 739.032, 513.733 744 C 511.140 750.503, 510.675 753.162, 510.238 764 C 509.336 786.338, 499.545 803.220, 471.343 831.070 C 446.394 855.708, 442.301 858.372, 434.712 854.915 C 428.652 852.153, 427.543 844.840, 431.878 836.221 C 433.461 833.075, 435.089 828.475, 435.495 826 C 435.902 823.525, 437.356 818.575, 438.726 815 C 440.744 809.735, 441.354 805.840, 441.937 794.500 C 442.596 781.688, 442.904 780.033, 445.574 775 C 448.492 769.500, 448.492 769.500, 449.016 744 C 449.541 718.500, 449.541 718.500, 452.521 713.045 C 455.550 707.499, 457.621 652.689, 455.468 635.033 C 454.181 624.475, 446.415 619.678, 437.566 623.974 C 423.436 630.834, 422.050 634.367, 422.022 663.591 C 422.005 681.264, 421.647 687.834, 420.494 691.591 C 417.939 699.923, 415 723.841, 415 736.306 C 415 747.223, 414.755 748.777, 411.923 755.833 C 409.204 762.606, 408.784 765.017, 408.317 776.500 C 407.854 787.894, 407.440 790.303, 404.959 796 C 403.403 799.575, 401.835 805.200, 401.474 808.500 C 400.415 818.205, 391.804 827.373, 381.701 829.553 C 371.068 831.848, 356 848.396, 356 857.780 C 356 862.859, 360.310 876.799, 363.798 883 C 371.798 897.224, 368.520 906.305, 347.673 927.673 C 333.056 942.654, 329.722 945, 323.049 945 C 308.033 945, 300.873 924.752, 309.434 906.500 C 311.817 901.420, 312.358 898.661, 312.961 888.500 C 313.575 878.176, 314.064 875.737, 316.461 871.039 C 318.643 866.763, 319.360 863.724, 319.767 857.039 C 320.155 850.639, 320.976 846.982, 323.044 842.440 C 325.320 837.441, 325.890 834.538, 326.300 825.856 C 326.727 816.834, 327.200 814.560, 329.616 809.916 C 332.251 804.853, 332.472 803.490, 332.997 789 C 333.522 774.539, 333.754 773.098, 336.459 767.500 C 339.104 762.026, 339.408 760.272, 339.929 747.500 C 340.454 734.625, 340.729 733.064, 343.351 728.075 C 345.418 724.142, 346.418 720.428, 346.986 714.575 C 347.517 709.098, 348.672 704.570, 350.577 700.500 C 352.950 695.431, 353.498 692.638, 354.107 682.500 C 354.503 675.900, 355.397 668.632, 356.094 666.349 C 358.071 659.869, 352.728 653.788, 346.618 655.565 C 333.969 659.244, 313.621 669.304, 310.547 673.398 C 304.490 681.465, 300.717 691.172, 299.889 700.813 C 299.309 707.571, 298.359 711.685, 296.426 715.813 C 294.266 720.424, 293.618 723.675, 293 733 C 292.371 742.491, 291.750 745.544, 289.442 750.476 C 287.076 755.535, 286.539 758.297, 285.947 768.476 C 285.363 778.524, 284.806 781.442, 282.560 786.230 C 280.537 790.541, 279.677 794.381, 279.086 801.730 C 278.540 808.527, 277.534 813.326, 275.778 817.500 C 273.693 822.456, 273.161 825.674, 272.718 836 C 272.244 847.080, 271.832 849.317, 269.091 855.695 C 266.639 861.403, 266 864.304, 266 869.727 C 266 878.960, 263.795 886.340, 255.462 905 C 254.111 908.025, 252.531 912.734, 251.951 915.465 C 250.842 920.680, 236.802 949.462, 231.805 956.761 C 228.994 960.868, 227 965.011, 225.552 969.750 C 224.134 974.394, 356.991 973.029, 359.498 968.373 C 360.585 966.356, 364.828 962.176, 369.059 958.955 C 375.406 954.123, 377.283 951.991, 380.390 946.077 C 382.439 942.178, 385.907 936.919, 388.097 934.388 C 390.286 931.858, 393.460 927.023, 395.149 923.644 C 396.838 920.265, 399.213 916.150, 400.425 914.500 C 401.638 912.850, 404.290 908.738, 406.319 905.363 C 413.156 893.988, 417.087 891.473, 429.278 890.671 C 437.735 890.115, 449.581 884.380, 460.310 875.647 C 464.264 872.428, 470.650 867.765, 474.500 865.285 C 478.350 862.804, 484.650 857.740, 488.500 854.031 C 499.795 843.150, 503.411 843.457, 509.864 855.846 C 515.112 865.922, 529.935 880.760, 537.500 883.509 C 540.250 884.508, 545.200 886.484, 548.500 887.900 C 554.421 890.441, 554.837 890.475, 580 890.487 C 607.318 890.501, 614.681 888.567, 629.289 877.543 C 631.605 875.795, 637.775 871.961, 643 869.022 C 648.225 866.083, 654.300 862.664, 656.500 861.423 C 662.177 858.221, 684.297 835.417, 686.980 830 C 688.206 827.525, 691.122 823.025, 693.460 820 C 695.799 816.975, 698.506 812.925, 699.477 811 C 705.032 799.982, 708.607 800.685, 724.400 815.903 C 735.949 827.032, 737.102 827.874, 742.126 828.832 C 759.560 832.160, 761.140 832.293, 768.375 831.042 C 784.212 828.305, 785.975 827.801, 790.057 824.844 C 792.369 823.169, 797.487 819.840, 801.430 817.446 C 810.383 812.011, 827.161 794.994, 832.411 786.025 C 842.761 768.343, 848.046 766.356, 860.165 775.588 C 878.787 789.776, 891.604 792.149, 909.639 784.750 C 914.666 782.687, 919.235 781, 919.794 781 C 929.151 781, 959.985 751.815, 968.525 734.875 C 972.025 727.931, 976.705 720.152, 978.924 717.587 C 981.144 715.023, 984.164 710.804, 985.637 708.212 C 987.109 705.621, 990.247 700.416, 992.610 696.647 C 994.972 692.878, 997.885 686.803, 999.082 683.147 C 1001.621 675.394, 1010.755 657.027, 1018.023 645.060 C 1022.913 637.009, 1026 628.460, 1026 622.969 C 1026 620.529, 1027.151 618.035, 1034.315 604.951 C 1035.863 602.123, 1038.015 595.758, 1039.095 590.806 C 1040.176 585.853, 1041.912 580.132, 1042.954 578.091 C 1043.995 576.050, 1045.589 571.514, 1046.497 568.011 C 1047.405 564.509, 1049.199 559.568, 1050.484 557.031 C 1051.769 554.495, 1053.305 549.801, 1053.897 546.600 C 1054.489 543.399, 1055.871 539.328, 1056.968 537.552 C 1058.065 535.777, 1059.573 531.439, 1060.319 527.912 C 1061.065 524.385, 1062.614 519.673, 1063.761 517.440 C 1064.908 515.207, 1066.558 510.636, 1067.427 507.281 C 1068.296 503.927, 1070.126 498.779, 1071.494 495.841 C 1073.086 492.422, 1073.986 488.700, 1073.996 485.500 C 1074.040 471.137, 1083.774 460.729, 1092.799 465.396 C 1106.535 472.499, 1113.907 506.593, 1105.314 523.283 C 1103.011 527.757, 1102.533 530.224, 1101.953 540.608 C 1101.384 550.785, 1100.842 553.657, 1098.557 558.608 C 1096.678 562.681, 1095.563 567.278, 1094.946 573.500 C 1094.455 578.450, 1093.577 584.075, 1092.996 586 C 1092.414 587.925, 1090.806 596.250, 1089.423 604.500 C 1088.039 612.750, 1085.690 623.550, 1084.204 628.500 C 1080.472 640.921, 1080.276 658.170, 1083.789 664.855 C 1085.048 667.251, 1086.770 672.201, 1087.616 675.855 C 1092.625 697.497, 1121.966 712.773, 1141.832 704.084 C 1145.500 702.480, 1150.300 700.844, 1152.500 700.448 C 1158.590 699.354, 1162.959 696.717, 1169 690.488 C 1172.025 687.369, 1177.200 682.994, 1180.500 680.766 C 1188.776 675.177, 1190.622 673.393, 1195.260 666.500 C 1197.480 663.200, 1202.543 657.125, 1206.511 653 C 1210.668 648.679, 1215.039 642.896, 1216.824 639.356 C 1218.528 635.977, 1221.767 631.080, 1224.022 628.475 C 1230.486 621.006, 1255.282 570.207, 1257.524 559.838 C 1257.922 558.002, 1259.316 554.377, 1260.623 551.783 C 1267.700 537.739, 1252.594 525.039, 1239.167 533.745 C 1234.028 537.077, 1225.577 552.510, 1223.888 561.646 C 1223.212 565.305, 1219.505 574.017, 1213.558 585.926 C 1208.457 596.142, 1203.719 606.884, 1203.030 609.797 C 1200.862 618.967, 1177.076 646.618, 1163.737 655.474 C 1143.123 669.161, 1126.076 643.573, 1138.772 618 C 1141.383 612.740, 1141.999 610.292, 1141.999 605.168 C 1142 601.144, 1142.875 596.223, 1144.400 591.668 C 1147.682 581.862, 1147.946 580.469, 1148.930 567.691 C 1149.534 559.853, 1150.451 555.002, 1151.990 551.500 C 1153.530 547.996, 1154.574 542.462, 1155.482 533 C 1156.458 522.827, 1157.421 517.965, 1159.389 513.270 C 1164.464 501.160, 1163.311 471.830, 1157.267 459.307 C 1150.938 446.194, 1139.478 434.274, 1127.328 428.165 C 1107.673 418.282, 1081.262 401.342, 1074.407 394.220 C 1070.421 390.079, 1068.219 384.275, 1067.493 376 C 1066.546 365.211, 1065.469 362.607, 1059.875 357.578 C 1051.462 350.013, 1039.114 345.521, 1033.388 347.941 M 838.500 530.427 C 837.950 530.646, 836.169 531.121, 834.543 531.484 C 826.924 533.180, 810.615 552.306, 808.906 561.548 C 808.334 564.643, 805.204 572.352, 801.746 579.180 C 795.602 591.314, 795.602 591.314, 795.012 606.907 C 794.485 620.842, 794.165 622.979, 792.006 627 C 789.886 630.947, 789.513 633.281, 788.963 646 C 788.386 659.341, 788.109 660.940, 785.487 666 C 783.090 670.625, 782.533 673.178, 781.985 682.046 C 781.458 690.573, 780.803 693.733, 778.566 698.546 C 776.534 702.918, 775.604 706.891, 775.065 713.500 C 774.497 720.474, 773.691 723.738, 771.486 728 C 768.619 733.540, 767.198 745.474, 766.646 768.654 C 766.426 777.934, 773.648 786.905, 782.708 788.605 C 795.917 791.083, 822.599 762.828, 830.496 738 C 831.459 734.975, 834.481 728.590, 837.212 723.811 C 841.396 716.491, 842.330 713.890, 843.138 707.311 C 843.927 700.891, 845.185 697.274, 850.203 687 C 856.308 674.500, 856.308 674.500, 857.037 659.500 C 857.646 646.958, 858.181 643.425, 860.303 637.938 C 862.893 631.242, 865 619.360, 865 611.450 C 865 609.028, 866.152 603.998, 867.561 600.273 C 869.159 596.046, 870.415 590.070, 870.902 584.375 C 871.446 578.008, 872.302 574.231, 873.733 571.875 C 877.183 566.199, 877.387 562.869, 874.686 556.354 C 873.350 553.134, 871.484 548.124, 870.538 545.219 C 866.770 533.647, 849.934 525.874, 838.500 530.427 M 1308 541 C 1305.769 543.231, 1305.756 543.322, 1305.510 558 C 1305.355 567.279, 1304.979 569.327, 1302.271 575.611 C 1299.649 581.698, 1299.028 584.865, 1297.961 597.611 C 1297.191 606.804, 1296.004 614.413, 1294.858 617.500 C 1291.401 626.808, 1294.154 633.541, 1304.707 641.590 C 1317.154 651.084, 1342.772 622.579, 1339.916 602.414 C 1338.798 594.516, 1339.300 591.287, 1342.623 585.008 C 1347.021 576.698, 1345.554 573.509, 1332.589 563.182 C 1322.937 555.495, 1321.360 553.632, 1319.452 547.658 C 1316.848 539.509, 1312.196 536.804, 1308 541 M 1380.001 544.702 C 1370.670 549.497, 1372.575 557.938, 1383 557.990 C 1386.542 558.008, 1393 561.184, 1393 562.909 C 1393 564.209, 1397.973 570, 1399.089 570 C 1399.590 570, 1400 564.154, 1400 557 C 1400 544, 1400 544, 1395.250 543.989 C 1392.638 543.983, 1388.925 543.736, 1387 543.441 C 1384.692 543.087, 1382.308 543.517, 1380.001 544.702 M 1365.117 564.631 C 1362.577 566.410, 1360 571.678, 1360 575.092 C 1360 576.278, 1358.464 580.680, 1356.587 584.874 C 1347.805 604.495, 1352.552 621.824, 1365.803 618.517 C 1371.635 617.062, 1373.268 612.909, 1371.050 605.176 C 1369.790 600.782, 1371.044 597.729, 1376.511 591.884 C 1382.869 585.087, 1383.130 582.949, 1378.245 577.650 C 1376.056 575.275, 1373.696 571.570, 1373.002 569.416 C 1370.829 562.678, 1369.262 561.727, 1365.117 564.631 M 1318.365 575.919 C 1309.308 581.442, 1309.924 604, 1319.132 604 C 1322.506 604, 1324.813 600.965, 1325.704 595.356 C 1326.041 593.235, 1327.145 589.550, 1328.158 587.167 C 1332.481 576.998, 1326.972 570.671, 1318.365 575.919 M 621 598.889 C 605.551 602.214, 586.625 629.835, 584.951 651.500 C 584.410 658.491, 583.429 663.305, 581.689 667.500 C 580.321 670.800, 578.881 676.650, 578.489 680.500 C 578.047 684.846, 576.605 690.154, 574.686 694.500 C 563.912 718.894, 573.907 745.304, 591.053 737.748 C 594.049 736.428, 598.750 734.789, 601.500 734.106 C 617.333 730.172, 631.450 713.541, 638.938 690 C 639.900 686.975, 641.821 682.250, 643.206 679.500 C 645.181 675.579, 645.872 672.287, 646.408 664.247 C 646.954 656.067, 647.707 652.548, 650.133 646.848 C 660.704 622.006, 643.694 594.005, 621 598.889 M 206 703.489 C 203.525 704.808, 199.025 706.388, 196 707 C 180.851 710.066, 171.657 719.993, 170.779 734.232 C 170.411 740.201, 169.658 743.165, 167.473 747.232 C 164.912 752, 164.580 753.781, 163.973 766 C 163.377 777.986, 162.949 780.360, 160.151 787.167 C 157.623 793.318, 157 796.249, 157 802 C 157 807.691, 156.363 810.746, 153.908 816.833 C 151.497 822.811, 150.646 826.813, 150.042 835 C 149.427 843.350, 148.694 846.721, 146.464 851.461 C 143.979 856.744, 143.588 858.962, 143.029 870.961 C 142.489 882.523, 142.051 885.157, 140.026 889 C 138.157 892.546, 137.492 895.860, 136.887 904.637 C 136.286 913.376, 135.533 917.145, 133.392 922.137 C 131.190 927.272, 130.528 930.724, 129.964 940.022 C 129.377 949.691, 128.832 952.398, 126.576 956.850 C 119.129 971.545, 119.826 972, 149.760 972 C 176.799 972, 176.799 972, 177.224 959.250 C 177.607 947.748, 177.930 945.913, 180.522 940.500 C 183.049 935.222, 183.468 932.995, 183.999 922 C 184.534 910.951, 184.927 908.874, 187.390 904.110 C 189.475 900.075, 190.299 896.808, 190.665 891.110 C 190.997 885.965, 192.002 881.557, 193.770 877.500 C 195.864 872.694, 196.518 869.208, 197.060 859.978 C 197.640 850.076, 198.132 847.685, 200.559 842.978 C 203.178 837.897, 203.431 836.376, 204.039 822 C 204.642 807.765, 204.927 806.010, 207.541 800.500 C 209.994 795.326, 210.472 792.848, 211.012 782.500 C 211.540 772.383, 212.082 769.480, 214.465 764 C 216.688 758.888, 217.444 755.258, 218.005 747 C 218.570 738.694, 219.293 735.247, 221.464 730.500 C 230.409 710.949, 221.430 695.265, 206 703.489" stroke="none" fill="#3a3a3a" fill-rule="evenodd"/>
</svg>